Tinker Tailor Soldier Spy (2011) 1080p MKV AC3+DTS Eng NL Subs
.
[IMG]http://img839.imageshack.us/img839/7661/kalbkaado.jpg[/IMG]
.
Frankrijk / Verenigd Koninkrijk / Duitsland
Thriller
127 minuten

geregisseerd door Tomas Alfredson
met Gary Oldman, Tom Hardy en Colin Firth

In de sombere dagen van de Koude Oorlog geniet de spionage veteraan George Smiley (Gary Oldman) van de Britse geheime dienst van zijn pensioen. Wanneer blijkt dat een oud-collega van Smiley een Russische spion is, wordt hij teruggeroepen door MI6 en gevraagd de spion op te sporen.

Momenteel te zien in 28 bioscopen
Vanaf 28 maart te koop op DVD en Blu-Ray
.  
http://www.moviemeter.nl/film/72417
.
PLOT
.
In the bleak days of the Cold War, espionage veteran George Smiley is forced from semi-retirement to uncover a Soviet agent within MI6's echelons. 
.  
http://www.imdb.com/title/tt1340800/
.
INFO
.
Source:
Video: 1920x816
Audio: Eng;ish AC3+DTS
Subs: English, Dutch
NL Vertaling: QoQ Team
.
Enjoy
.
Format                           : Matroska
Format version                   : Version 2
File size                        : 8.52 GiB
Duration                         : 2h 7mn
Overall bit rate                 : 9 578 Kbps
Encoded date                     : UTC 2012-01-13 21:26:09
Writing application              : mkvmerge v3.0.0 ('Hang up your Hang-Ups') built on Dec 12 2009 15:20:35
Writing library                  : libebml v0.7.9 + libmatroska v0.8.1

Video
ID                               : 1
Format                           : AVC
Format/Info                      : Advanced Video Codec
Format profile                   : High@L4.1
Format settings, CABAC           : Yes
Format settings, ReFrames        : 5 frames
Codec ID                         : V_MPEG4/ISO/AVC
Duration                         : 2h 7mn
Bit rate                         : 8 170 Kbps
Width                            : 1 920 pixels
Height                           : 816 pixels
Display aspect ratio             : 2.35:1
Frame rate                       : 23.976 fps
Color space                      : YUV
Chroma subsampling               : 4:2:0
Bit depth                        : 8 bits
Scan type                        : Progressive
Bits/(Pixel*Frame)               : 0.217
Stream size                      : 7.11 GiB (83%)
Writing library                  : x264 core 120 r2120 0c7dab9
Encoding settings                : cabac=1 / ref=5 / deblock=1:0:0 / analyse=0x3:0x133 / me=umh / subme=8 / psy=1 / psy_rd=1.00:0.00 / mixed_ref=1 / me_range=16 / chroma_me=1 / trellis=1 / 8x8dct=1 / cqm=0 / deadzone=21,11 / fast_pskip=0 / chroma_qp_offset=-2 / threads=18 / sliced_threads=0 / nr=0 / decimate=1 / interlaced=0 / bluray_compat=0 / constrained_intra=0 / bframes=3 / b_pyramid=2 / b_adapt=1 / b_bias=0 / direct=1 / weightb=1 / open_gop=0 / weightp=2 / keyint=250 / keyint_min=23 / scenecut=40 / intra_refresh=0 / rc_lookahead=40 / rc=2pass / mbtree=1 / bitrate=8170 / ratetol=1.0 / qcomp=0.60 / qpmin=0 / qpmax=69 / qpstep=4 / cplxblur=20.0 / qblur=0.5 / ip_ratio=1.40 / aq=1:1.00
Language                         : English
Default                          : No
Forced                           : No

Audio #1
ID                               : 2
Format                           : DTS
Format/Info                      : Digital Theater Systems
Codec ID                         : A_DTS
Duration                         : 2h 7mn
Bit rate mode                    : Constant
Bit rate                         : 755 Kbps
Channel(s)                       : 6 channels
Channel positions                : Front: L C R, Side: L R, LFE
Sampling rate                    : 48.0 KHz
Bit depth                        : 24 bits
Compression mode                 : Lossy
Delay relative to video          : 11ms
Stream size                      : 687 MiB (8%)
Title                            : Engels DYS
Language                         : English
Default                          : Yes
Forced                           : No

Audio #2
ID                               : 3
Format                           : AC-3
Format/Info                      : Audio Coding 3
Mode extension                   : CM (complete main)
Codec ID                         : A_AC3
Duration                         : 2h 7mn
Bit rate mode                    : Constant
Bit rate                         : 640 Kbps
Channel(s)                       : 6 channels
Channel positions                : Front: L C R, Side: L R, LFE
Sampling rate                    : 48.0 KHz
Bit depth                        : 16 bits
Compression mode                 : Lossy
Stream size                      : 583 MiB (7%)
Title                            : Engels DD5.1
Language                         : English
Default                          : No
Forced                           : No

Text #1
ID                               : 4
Format                           : UTF-8
Codec ID                         : S_TEXT/UTF8
Codec ID/Info                    : UTF-8 Plain Text
Title                            : Nederlands
Language                         : Dutch
Default                          : Yes
Forced                           : Yes

Text #2
ID                               : 5
Format                           : UTF-8
Codec ID                         : S_TEXT/UTF8
Codec ID/Info                    : UTF-8 Plain Text
Title                            : Engels
Language                         : English
Default                          : No
Forced                           : No



